# xmcd
#
# Track frame offsets: 
#        150
#        18595
#        35756
#        51890
#        73514
#        85461
#        100555
#        115351
#        128339
#        143903
#        159410
#        172223
#        190623
#        206822
#        230605
#        245638
#        264327
#        276241
#        293626
#        306445
#        320845
#        332632
#        345098
#        358439
#
# Disc length: 4958 seconds
#
# Revision: 4
# Processed by: cddbd v1.5.2PL0 Copyright (c) Steve Scherf et al.
# Submitted via: ExactAudioCopyFreeDBPlugin 1.0
#
DISCID=72135c18
DTITLE=Various Artist - Sweet Soul Music:  411 Scorching Classics, 19
DTITLE=61-1975 [Bear Family]
DYEAR=2009
DGENRE=Soul
TTITLE0=Johnnie Taylor - Love Bones
TTITLE1=Brook Benton - Rainy Night in Georgia
TTITLE2=Jr. Walker and The All Stars - Gotta Hold on to This Feeling
TTITLE3=Sly and The Family Stone - Thank You (Falettinme Be Mice Elf Agi
TTITLE3=n)
TTITLE4=The Chairmen of the Board - Give Me Just a Little More Time
TTITLE5=The Delfonics - Didn't I (Blow Your Mind This Time)
TTITLE6=George Perkins and The Silver Stars - Cryin' in the Streets, Par
TTITLE6=t 1
TTITLE7=Tyrone Davis - Turn Back the Hands of Time
TTITLE8=Little Sister - You're the One, Part 1
TTITLE9=The Moments - Love on a Two-Way Street
TTITLE10=Freda Payne - Band of Gold
TTITLE11=The Temptations - Ball of Confusion (That's What the World is
TTITLE11=Today)
TTITLE12=Paul Kelly - Stealin' in the Name of the Lord
TTITLE13=James Brown - Get Up (I Feel Like Being a Sex Machine)
TTITLE14=Edwin Starr - War
TTITLE15=Luther Ingram - Ain't That Lovin' You (For More Reasons Than 
TTITLE15=One)
TTITLE16=Stevie Wonder - Signed, Sealed, Delivered I'm Yours
TTITLE17=Charles Wright and The Watts 103rd Street Rhythm Band - Express
TTITLE17=Yourself
TTITLE18=Ann Peebles - Part Time Love
TTITLE19=The Spinners - It's a Shame
TTITLE20=Otis Leavill - Love Uprising
TTITLE21=100 Proof Aged in Soul - Somebody's Been Sleeping
TTITLE22=King Floyd - Groove Me
TTITLE23=Smokey Robinson and The Miracles - The Tears of a Clown
EXTD=
EXTT0=
EXTT1=
EXTT2=
EXTT3=
EXTT4=
EXTT5=
EXTT6=
EXTT7=
EXTT8=
EXTT9=
EXTT10=
EXTT11=
EXTT12=
EXTT13=
EXTT14=
EXTT15=
EXTT16=
EXTT17=
EXTT18=
EXTT19=
EXTT20=
EXTT21=
EXTT22=
EXTT23=
PLAYORDER=
